# xmcd CD database file
#
# Track frame offsets:
#	150
#	29153
#	52008
#	57217
#	93764
#	101925
#	134076
#	144434
#	151643
#	175242
#	184941
#	238374
#	250265
#	270369
#
# Disc length: 3685 seconds
#
# Revision: 0
# Processed by: cddbd v1.5.2PL0 Copyright (c) Steve Scherf et al.
# Submitted via: CDex 1.51
#
DISCID=cb0e630e
DTITLE=Stefan Bauer - Voyage
DYEAR=2008
DGENRE=Jazz
TTITLE0=Hymne
TTITLE1=Beyond the Wall...
TTITLE2=Tactile Pleasure
TTITLE3=Keeper of the flame
TTITLE4=Gespräch
TTITLE5=Mallari
TTITLE6=Nachklang
TTITLE7=Gesa's Line
TTITLE8=Stufen
TTITLE9=Momentaufnahme
TTITLE10=Seduction
TTITLE11=Klangskizze
TTITLE12=Worlds collide
TTITLE13=Nachtlied
EXTD=YEAR: 2008
EXTT0=
EXTT1=
EXTT2=
EXTT3=
EXTT4=
EXTT5=
EXTT6=
EXTT7=
EXTT8=
EXTT9=
EXTT10=
EXTT11=
EXTT12=
EXTT13=
PLAYORDER=
